<svg xmlns="http://www.w3.org/2000/svg" viewBox="0 0 409 365.1" style="enable-background:new 0 0 409 365.1" xml:space="preserve"><style>.st0{fill:none}.st1,.st2,.st4{fill:none;stroke:#bcbcbc;stroke-linecap:round}.st1{stroke-width:12;stroke-miterlimit:10}.st2,.st4{stroke-width:14}.st2{stroke-miterlimit:10}.st4{stroke-linejoin:round}.st5{fill:#bcbcbc}.st7{fill:none;stroke:#434343;stroke-width:21;stroke-linecap:round;stroke-miterlimit:10}</style><g id="Layer_1"><g id="Layer_1-2_1_"><path class="st0" d="M191 122V44L16 122"/><path class="st1" d="M191 122V44L16 122"/><path class="st2" d="M191 122V44L16 122"/><path class="st0" d="M217 42v80h26"/><path class="st1" d="M217 42v80h26"/><path class="st2" d="M217 42v80h26"/><path class="st0" d="M106 82h65"/><path d="M106 82h65" style="fill:none;stroke:#bcbcbc;stroke-width:12;stroke-miterlimit:10"/><path class="st2" d="M106 82h65M203 139v47M393 151H15M199 155c-72 43-181 56-184 56M208 155c72 43 182 56 185 56"/><path class="st4" d="M141 205h115l2 2-1 2-54 26"/><path class="st2" d="m196 230 26 17s18 31-18 81l-9-14"/><path class="st4" d="M139 255h254"/><path class="st2" d="M281 122h14"/><circle class="st5" cx="261.5" cy="121.9" r="7"/><path class="st2" d="M314 122h14M347 122h14M379 122h14M106 255h14"/><circle class="st5" cx="53.5" cy="254.9" r="7"/><path class="st2" d="M73 255h14"/><circle class="st5" cx="35.5" cy="254.9" r="7"/><circle class="st5" cx="17.5" cy="254.9" r="7"/></g></g><g id="Layer_2"><path class="st7" d="m11 11 388 344M398 11 11 355"/></g></svg>