<svg xmlns="http://www.w3.org/2000/svg" viewBox="0 0 393 208.4"><defs><style>.cls-1,.cls-3{fill:none;stroke:#bcbcbc;stroke-linecap:round;stroke-width:14px}.cls-1{stroke-miterlimit:10}.cls-3{stroke-linejoin:round}.cls-4{fill:#bcbcbc}</style></defs><g id="Layer_2" data-name="Layer 2"><g id="Layer_1-2" data-name="Layer 1"><path class="cls-1" d="M196 7v47"/><path style="stroke-width:15px;stroke-miterlimit:10;fill:none;stroke:#bcbcbc;stroke-linecap:round" d="M386 19H8"/><path class="cls-1" d="M192 23C119 67 11 79 8 79M201 23c72 43 182 56 185 56"/><path class="cls-3" d="M134 73h114a2 2 0 0 1 1 4l-53 26"/><path class="cls-1" d="m189 98 26 17s17 32-18 81l-9-14"/><path class="cls-3" d="M131 124h254"/><path class="cls-1" d="M98 124h14"/><circle class="cls-4" cx="46" cy="123.5" r="7"/><path class="cls-1" d="M65 124h14"/><circle class="cls-4" cx="28" cy="123.5" r="7"/><circle class="cls-4" cx="10" cy="123.5" r="7"/></g></g></svg>