<svg xmlns="http://www.w3.org/2000/svg" viewBox="0 0 392 327" style="" xml:space="preserve"><style>.st0{fill:none}.st1,.st2,.st4{fill:none;stroke:#bcbcbc;stroke-linecap:round}.st1{stroke-width:12;stroke-miterlimit:10}.st2,.st4{stroke-width:14}.st2{stroke-miterlimit:10}.st4{stroke-linejoin:round}.st5{fill:#bcbcbc}.st6,.st7,.st9{fill:none;stroke:#434343;stroke-linecap:round}.st6{stroke-width:12;stroke-miterlimit:10}.st7,.st9{stroke-width:14}.st7{stroke-miterlimit:10}.st9{stroke-linejoin:round}.st10{fill:#434343}</style><g id="Layer_1"><g id="Layer_1-2"><path class="st0 WnukNobK_0" d="M183 109V31L8 109"></path><path class="st1 WnukNobK_1" d="M183 109V31L8 109"></path><path class="st2 WnukNobK_2" d="M183 109V31L8 109"></path><path class="st0 WnukNobK_3" d="M209 29v80h26"></path><path class="st1 WnukNobK_4" d="M209 29v80h26"></path><path class="st2 WnukNobK_5" d="M209 29v80h26"></path><path class="st0 WnukNobK_6" d="M98 69h65"></path><path style="fill:none;stroke:#bcbcbc;stroke-width:12;stroke-miterlimit:10" d="M98 69h65" class="WnukNobK_7"></path><path class="st2 WnukNobK_8" d="M98 69h65M195 126v47M385 138H7M191 142c-72 43-181 56-184 56M200 142c72 43 182 56 185 56"></path><path class="st4 WnukNobK_9" d="M133 192h115l2 2-1 2-54 26"></path><path class="st2 WnukNobK_10" d="m188 217 26 17s18 31-18 81l-9-14"></path><path class="st4 WnukNobK_11" d="M131 242h254"></path><path class="st2 WnukNobK_12" d="M273 109h14"></path><path class="st5 WnukNobK_13" d="M246.5,109A7,7 0,1,1 260.5,109A7,7 0,1,1 246.5,109"></path><path class="st2 WnukNobK_14" d="M306 109h14M339 109h14M371 109h14M98 242h14"></path><path class="st5 WnukNobK_15" d="M38.5,242A7,7 0,1,1 52.5,242A7,7 0,1,1 38.5,242"></path><path class="st2 WnukNobK_16" d="M65 242h14"></path><path class="st5 WnukNobK_17" d="M20.5,242A7,7 0,1,1 34.5,242A7,7 0,1,1 20.5,242"></path><path class="st5 WnukNobK_18" d="M2.5,242A7,7 0,1,1 16.5,242A7,7 0,1,1 2.5,242"></path></g></g><g id="Layer_2"><g id="Layer_1-2_1_"><path class="st0 WnukNobK_19" d="M183 90V12L8 90"></path><path class="st6 WnukNobK_20" d="M183 90V12L8 90"></path><path class="st7 WnukNobK_21" d="M183 90V12L8 90"></path><path class="st0 WnukNobK_22" d="M209 10v80h26"></path><path class="st6 WnukNobK_23" d="M209 10v80h26"></path><path class="st7 WnukNobK_24" d="M209 10v80h26"></path><path class="st0 WnukNobK_25" d="M98 50h65"></path><path style="fill:none;stroke:#434343;stroke-width:12;stroke-miterlimit:10" d="M98 50h65" class="WnukNobK_26"></path><path class="st7 WnukNobK_27" d="M98 50h65M195 107v47M385 119H7M191 123c-72 43-181 56-184 56M200 123c72 43 182 56 185 56"></path><path class="st9 WnukNobK_28" d="M133 173h115l2 2-1 2-54 26"></path><path class="st7 WnukNobK_29" d="m188 198 26 17s18 31-18 81l-9-14"></path><path class="st9 WnukNobK_30" d="M131 223h254"></path><path class="st7 WnukNobK_31" d="M273 90h14"></path><path class="st10 WnukNobK_32" d="M246.5,90A7,7 0,1,1 260.5,90A7,7 0,1,1 246.5,90"></path><path class="st7 WnukNobK_33" d="M306 90h14M339 90h14M371 90h14M98 223h14"></path><path class="st10 WnukNobK_34" d="M38.5,223A7,7 0,1,1 52.5,223A7,7 0,1,1 38.5,223"></path><path class="st7 WnukNobK_35" d="M65 223h14"></path><path class="st10 WnukNobK_36" d="M20.5,223A7,7 0,1,1 34.5,223A7,7 0,1,1 20.5,223"></path><path class="st10 WnukNobK_37" d="M2.5,223A7,7 0,1,1 16.5,223A7,7 0,1,1 2.5,223"></path></g></g><style data-made-with="vivus-instant">.WnukNobK_0{stroke-dasharray:270 272;stroke-dashoffset:271;animation:WnukNobK_draw 4000ms ease 0ms forwards;}.WnukNobK_1{stroke-dasharray:270 272;stroke-dashoffset:271;animation:WnukNobK_draw 4000ms ease 0ms forwards;}.WnukNobK_2{stroke-dasharray:270 272;stroke-dashoffset:271;animation:WnukNobK_draw 4000ms ease 0ms forwards;}.WnukNobK_3{stroke-dasharray:106 108;stroke-dashoffset:107;animation:WnukNobK_draw 4000ms ease 0ms forwards;}.WnukNobK_4{stroke-dasharray:106 108;stroke-dashoffset:107;animation:WnukNobK_draw 4000ms ease 0ms forwards;}.WnukNobK_5{stroke-dasharray:106 108;stroke-dashoffset:107;animation:WnukNobK_draw 4000ms ease 0ms forwards;}.WnukNobK_6{stroke-dasharray:65 67;stroke-dashoffset:66;animation:WnukNobK_draw 4000ms ease 0ms forwards;}.WnukNobK_7{stroke-dasharray:65 67;stroke-dashoffset:66;animation:WnukNobK_draw 4000ms ease 0ms forwards;}.WnukNobK_8{stroke-dasharray:879 881;stroke-dashoffset:880;animation:WnukNobK_draw 4000ms ease 0ms forwards;}.WnukNobK_9{stroke-dasharray:180 182;stroke-dashoffset:181;animation:WnukNobK_draw 4000ms ease 0ms forwards;}.WnukNobK_10{stroke-dasharray:135 137;stroke-dashoffset:136;animation:WnukNobK_draw 4000ms ease 0ms forwards;}.WnukNobK_11{stroke-dasharray:254 256;stroke-dashoffset:255;animation:WnukNobK_draw 4000ms ease 0ms forwards;}.WnukNobK_12{stroke-dasharray:14 16;stroke-dashoffset:15;animation:WnukNobK_draw 4000ms ease 0ms forwards;}.WnukNobK_13{stroke-dasharray:44 46;stroke-dashoffset:45;animation:WnukNobK_draw 4000ms ease 0ms forwards;}.WnukNobK_14{stroke-dasharray:56 58;stroke-dashoffset:57;animation:WnukNobK_draw 4000ms ease 0ms forwards;}.WnukNobK_15{stroke-dasharray:44 46;stroke-dashoffset:45;animation:WnukNobK_draw 4000ms ease 0ms forwards;}.WnukNobK_16{stroke-dasharray:14 16;stroke-dashoffset:15;animation:WnukNobK_draw 4000ms ease 0ms forwards;}.WnukNobK_17{stroke-dasharray:44 46;stroke-dashoffset:45;animation:WnukNobK_draw 4000ms ease 0ms forwards;}.WnukNobK_18{stroke-dasharray:44 46;stroke-dashoffset:45;animation:WnukNobK_draw 4000ms ease 0ms forwards;}.WnukNobK_19{stroke-dasharray:270 272;stroke-dashoffset:271;animation:WnukNobK_draw 4000ms ease 0ms forwards;}.WnukNobK_20{stroke-dasharray:270 272;stroke-dashoffset:271;animation:WnukNobK_draw 4000ms ease 0ms forwards;}.WnukNobK_21{stroke-dasharray:270 272;stroke-dashoffset:271;animation:WnukNobK_draw 4000ms ease 0ms forwards;}.WnukNobK_22{stroke-dasharray:106 108;stroke-dashoffset:107;animation:WnukNobK_draw 4000ms ease 0ms forwards;}.WnukNobK_23{stroke-dasharray:106 108;stroke-dashoffset:107;animation:WnukNobK_draw 4000ms ease 0ms forwards;}.WnukNobK_24{stroke-dasharray:106 108;stroke-dashoffset:107;animation:WnukNobK_draw 4000ms ease 0ms forwards;}.WnukNobK_25{stroke-dasharray:65 67;stroke-dashoffset:66;animation:WnukNobK_draw 4000ms ease 0ms forwards;}.WnukNobK_26{stroke-dasharray:65 67;stroke-dashoffset:66;animation:WnukNobK_draw 4000ms ease 0ms forwards;}.WnukNobK_27{stroke-dasharray:879 881;stroke-dashoffset:880;animation:WnukNobK_draw 4000ms ease 0ms forwards;}.WnukNobK_28{stroke-dasharray:180 182;stroke-dashoffset:181;animation:WnukNobK_draw 4000ms ease 0ms forwards;}.WnukNobK_29{stroke-dasharray:135 137;stroke-dashoffset:136;animation:WnukNobK_draw 4000ms ease 0ms forwards;}.WnukNobK_30{stroke-dasharray:254 256;stroke-dashoffset:255;animation:WnukNobK_draw 4000ms ease 0ms forwards;}.WnukNobK_31{stroke-dasharray:14 16;stroke-dashoffset:15;animation:WnukNobK_draw 4000ms ease 0ms forwards;}.WnukNobK_32{stroke-dasharray:44 46;stroke-dashoffset:45;animation:WnukNobK_draw 4000ms ease 0ms forwards;}.WnukNobK_33{stroke-dasharray:56 58;stroke-dashoffset:57;animation:WnukNobK_draw 4000ms ease 0ms forwards;}.WnukNobK_34{stroke-dasharray:44 46;stroke-dashoffset:45;animation:WnukNobK_draw 4000ms ease 0ms forwards;}.WnukNobK_35{stroke-dasharray:14 16;stroke-dashoffset:15;animation:WnukNobK_draw 4000ms ease 0ms forwards;}.WnukNobK_36{stroke-dasharray:44 46;stroke-dashoffset:45;animation:WnukNobK_draw 4000ms ease 0ms forwards;}.WnukNobK_37{stroke-dasharray:44 46;stroke-dashoffset:45;animation:WnukNobK_draw 4000ms ease 0ms forwards;}@keyframes WnukNobK_draw{100%{stroke-dashoffset:0;}}@keyframes WnukNobK_fade{0%{stroke-opacity:1;}95.1219512195122%{stroke-opacity:1;}100%{stroke-opacity:0;}}</style></svg>