<svg version="1.1" id="Layer_1" xmlns="http://www.w3.org/2000/svg" x="0" y="0" viewBox="0 0 391 107.2" style="" xml:space="preserve"><style>.st0{fill:none}.st1,.st2,.st5,.st6{fill:none;stroke:#bcbcbc;stroke-width:12;stroke-linecap:round;stroke-miterlimit:10}.st2,.st5,.st6{stroke-width:14}.st5,.st6{stroke:#222;stroke-width:12}.st6{stroke-width:14}</style><g id="Layer_1-2"><path class="st0 fVaFifbZ_0" d="M182 100V22L7 100"></path><path class="st1 fVaFifbZ_1" d="M182 100V22L7 100"></path><path class="st2 fVaFifbZ_2" d="M182 100V22L7 100"></path><path class="st0 fVaFifbZ_3" d="M208 20v80h26"></path><path class="st1 fVaFifbZ_4" d="M208 20v80h26"></path><path class="st2 fVaFifbZ_5" d="M208 20v80h26"></path><path class="st0 fVaFifbZ_6" d="M97 60h65"></path><path style="fill:none;stroke:#bcbcbc;stroke-width:12;stroke-miterlimit:10" d="M97 60h65" class="fVaFifbZ_7"></path><path class="st2 fVaFifbZ_8" d="M97 60h65M272 100h14"></path><path style="fill:#bcbcbc" d="M246,100.2A7,7 0,1,1 260,100.2A7,7 0,1,1 246,100.2" class="fVaFifbZ_9"></path><path class="st2 fVaFifbZ_10" d="M305 100h14M338 100h14M370 100h14"></path></g><g id="Layer_1-2_1_"><path class="st0 fVaFifbZ_11" d="M182 89V11L7 89"></path><path class="st5 fVaFifbZ_12" d="M182 89V11L7 89"></path><path class="st6 fVaFifbZ_13" d="M182 89V11L7 89"></path><path class="st0 fVaFifbZ_14" d="M208 9v80h26"></path><path class="st5 fVaFifbZ_15" d="M208 9v80h26"></path><path class="st6 fVaFifbZ_16" d="M208 9v80h26"></path><path class="st0 fVaFifbZ_17" d="M97 49h65"></path><path style="fill:none;stroke:#222;stroke-width:12;stroke-miterlimit:10" d="M97 49h65" class="fVaFifbZ_18"></path><path class="st6 fVaFifbZ_19" d="M97 49h65M272 89h14"></path><path style="fill:#222" d="M246,89.2A7,7 0,1,1 260,89.2A7,7 0,1,1 246,89.2" class="fVaFifbZ_20"></path><path class="st6 fVaFifbZ_21" d="M305 89h14M338 89h14M370 89h14"></path></g><style data-made-with="vivus-instant">.fVaFifbZ_0{stroke-dasharray:270 272;stroke-dashoffset:271;animation:fVaFifbZ_draw 2000ms ease 0ms forwards;}.fVaFifbZ_1{stroke-dasharray:270 272;stroke-dashoffset:271;animation:fVaFifbZ_draw 2000ms ease 0ms forwards;}.fVaFifbZ_2{stroke-dasharray:270 272;stroke-dashoffset:271;animation:fVaFifbZ_draw 2000ms ease 0ms forwards;}.fVaFifbZ_3{stroke-dasharray:106 108;stroke-dashoffset:107;animation:fVaFifbZ_draw 2000ms ease 0ms forwards;}.fVaFifbZ_4{stroke-dasharray:106 108;stroke-dashoffset:107;animation:fVaFifbZ_draw 2000ms ease 0ms forwards;}.fVaFifbZ_5{stroke-dasharray:106 108;stroke-dashoffset:107;animation:fVaFifbZ_draw 2000ms ease 0ms forwards;}.fVaFifbZ_6{stroke-dasharray:65 67;stroke-dashoffset:66;animation:fVaFifbZ_draw 2000ms ease 0ms forwards;}.fVaFifbZ_7{stroke-dasharray:65 67;stroke-dashoffset:66;animation:fVaFifbZ_draw 2000ms ease 0ms forwards;}.fVaFifbZ_8{stroke-dasharray:79 81;stroke-dashoffset:80;animation:fVaFifbZ_draw 2000ms ease 0ms forwards;}.fVaFifbZ_9{stroke-dasharray:44 46;stroke-dashoffset:45;animation:fVaFifbZ_draw 2000ms ease 0ms forwards;}.fVaFifbZ_10{stroke-dasharray:42 44;stroke-dashoffset:43;animation:fVaFifbZ_draw 2000ms ease 0ms forwards;}.fVaFifbZ_11{stroke-dasharray:270 272;stroke-dashoffset:271;animation:fVaFifbZ_draw 2000ms ease 0ms forwards;}.fVaFifbZ_12{stroke-dasharray:270 272;stroke-dashoffset:271;animation:fVaFifbZ_draw 2000ms ease 0ms forwards;}.fVaFifbZ_13{stroke-dasharray:270 272;stroke-dashoffset:271;animation:fVaFifbZ_draw 2000ms ease 0ms forwards;}.fVaFifbZ_14{stroke-dasharray:106 108;stroke-dashoffset:107;animation:fVaFifbZ_draw 2000ms ease 0ms forwards;}.fVaFifbZ_15{stroke-dasharray:106 108;stroke-dashoffset:107;animation:fVaFifbZ_draw 2000ms ease 0ms forwards;}.fVaFifbZ_16{stroke-dasharray:106 108;stroke-dashoffset:107;animation:fVaFifbZ_draw 2000ms ease 0ms forwards;}.fVaFifbZ_17{stroke-dasharray:65 67;stroke-dashoffset:66;animation:fVaFifbZ_draw 2000ms ease 0ms forwards;}.fVaFifbZ_18{stroke-dasharray:65 67;stroke-dashoffset:66;animation:fVaFifbZ_draw 2000ms ease 0ms forwards;}.fVaFifbZ_19{stroke-dasharray:79 81;stroke-dashoffset:80;animation:fVaFifbZ_draw 2000ms ease 0ms forwards;}.fVaFifbZ_20{stroke-dasharray:44 46;stroke-dashoffset:45;animation:fVaFifbZ_draw 2000ms ease 0ms forwards;}.fVaFifbZ_21{stroke-dasharray:42 44;stroke-dashoffset:43;animation:fVaFifbZ_draw 2000ms ease 0ms forwards;}@keyframes fVaFifbZ_draw{100%{stroke-dashoffset:0;}}@keyframes fVaFifbZ_fade{0%{stroke-opacity:1;}93.54838709677419%{stroke-opacity:1;}100%{stroke-opacity:0;}}</style></svg>